<?xml version="1.0" standalone="no"?>
<!DOCTYPE svg PUBLIC "-//W3C//DTD SVG 20010904//EN"
 "http://www.w3.org/TR/2001/REC-SVG-20010904/DTD/svg10.dtd">
<svg version="1.0" xmlns="http://www.w3.org/2000/svg"
 width="500.000000pt" height="250.000000pt" viewBox="0 0 500.000000 250.000000"
 preserveAspectRatio="xMidYMid meet">

<g transform="translate(0.000000,250.000000) scale(0.100000,-0.100000)"
fill="#000000" stroke="none">
<path d="M3047 1835 c-26 -26 -59 -148 -97 -365 -5 -30 -21 -118 -36 -194 -25
-139 -24 -166 9 -153 9 3 22 34 30 73 9 36 20 71 26 77 5 5 29 7 55 3 51 -8
54 -13 58 -106 3 -51 5 -55 28 -55 l25 0 -3 160 c-2 88 -10 223 -19 300 -8 77
-17 165 -20 195 -7 75 -25 96 -56 65z m22 -317 c7 -73 12 -146 10 -163 -4 -28
-7 -30 -39 -27 -19 2 -39 8 -44 12 -14 14 37 310 53 310 4 0 13 -60 20 -132z"/>
</g>
</svg>
